<?xml version="1.0" encoding="utf-8"?>
<!-- Generator: Adobe Illustrator 21.1.0, SVG Export Plug-In . SVG Version: 6.00 Build 0)  -->
<svg version="1.1" id="Layer_1" xmlns="http://www.w3.org/2000/svg" xmlns:xlink="http://www.w3.org/1999/xlink" x="0px" y="0px"
	 viewBox="0 0 145.1 38.4" style="enable-background:new 0 0 145.1 38.4;" xml:space="preserve">
<style type="text/css">
	.st0{fill:#00ADEE;}
	.st1{fill:#008ED3;}
	.st2{fill:#76BAE6;}
</style>
<g>
	<path class="st0" d="M45.8,26.1l-3.4,8.1h-3.5L52,4.3l12.8,29.9h-3.5L58,26.1H45.8z M51.9,11.8l-4.9,11.4h9.7L51.9,11.8z"/>
	<path class="st0" d="M73.6,4.1l10.4,24l10.4-24l5.8,30.2h-3.3l-3.7-19.3h-0.1l-9.2,20.5l-9.2-20.5h-0.1L71,34.3h-3.3L73.6,4.1z"/>
	<path class="st0" d="M110,26.1l-3.4,8.1H103l13.2-29.9L129,34.3h-3.5l-3.4-8.1H110z M116.1,11.8l-4.9,11.4h9.7L116.1,11.8z"/>
	<path class="st0" d="M137.2,31.3h7.9v3H134V5.7h3.2V31.3z"/>
</g>
<g>
	<path class="st1" d="M0,20.4c0,2.8,0.7,5.4,1.8,7.8L14,3.1C6,4.8,0,11.9,0,20.4z"/>
	<path class="st2" d="M35.3,20.4c0-9.7-7.9-17.6-17.6-17.6c-1.1,0-2.2,0.1-3.3,0.3l12.2,32.5C31.8,32.5,35.3,26.9,35.3,20.4z"/>
</g>
</svg>
