<?xml version="1.0" encoding="utf-8"?>
<!-- Generator: Adobe Illustrator 22.0.1, SVG Export Plug-In . SVG Version: 6.00 Build 0)  -->
<svg version="1.1" id="Layer_1" xmlns="http://www.w3.org/2000/svg" xmlns:xlink="http://www.w3.org/1999/xlink" x="0px" y="0px"
	 viewBox="0 0 28.4 28.5" style="enable-background:new 0 0 28.4 28.5;" xml:space="preserve">
<style type="text/css">
	.st0{fill:#3CAAE1;}
</style>
<g>
	<path class="st0" d="M14.1,16.8c-0.6,0-1-0.5-1-1c0-0.3-0.2-0.5-0.5-0.5s-0.5,0.2-0.5,0.5c0,0.9,0.6,1.7,1.5,1.9v0.5
		c0,0.3,0.2,0.5,0.5,0.5s0.5-0.2,0.5-0.5v-0.5c0.9-0.2,1.5-1,1.5-1.9c0-1.1-0.9-2-2-2c-0.6,0-1-0.5-1-1s0.5-1,1-1s1,0.5,1,1
		c0,0.3,0.2,0.5,0.5,0.5s0.5-0.2,0.5-0.5c0-0.9-0.6-1.7-1.5-1.9v-0.5c0-0.3-0.2-0.5-0.5-0.5s-0.5,0.2-0.5,0.5v0.5
		c-0.9,0.2-1.5,1-1.5,1.9c0,1.1,0.9,2,2,2c0.6,0,1,0.5,1,1S14.7,16.8,14.1,16.8z"/>
	<path class="st0" d="M25.9,11.9c-1.2,0-2.2,0.9-2.5,2h-3c-0.1-1.3-0.5-2.5-1.3-3.5l2.2-2.2c0.4,0.3,0.9,0.4,1.4,0.4
		c0.6,0,1.3-0.2,1.8-0.7c1-1,1-2.6,0-3.5c-1-1-2.6-1-3.5,0c-0.9,0.9-1,2.2-0.3,3.2l-2.1,2.1c-1-0.9-2.3-1.6-3.8-1.7V5
		c1.1-0.2,2-1.2,2-2.5c0-1.4-1.1-2.5-2.5-2.5s-2.5,1.1-2.5,2.5c0,1.2,0.9,2.2,2,2.5v3c-1.4,0.1-2.6,0.6-3.6,1.5L7.9,7.4
		C8.2,7,8.4,6.5,8.4,6c0-0.7-0.3-1.3-0.7-1.8C7.1,3.7,6.5,3.5,5.8,3.5c0,0,0,0,0,0c-0.7,0-1.3,0.3-1.8,0.7C3.6,4.7,3.3,5.3,3.3,6
		c0,0.7,0.3,1.3,0.7,1.8c0.5,0.5,1.1,0.7,1.8,0.7h0c0.5,0,1-0.1,1.4-0.4l2.1,2.1c-0.9,1-1.4,2.3-1.5,3.7h-3c-0.2-1.1-1.2-2-2.5-2
		c-1.4,0-2.5,1.1-2.5,2.5s1.1,2.5,2.5,2.5c1.2,0,2.2-0.9,2.5-2h3c0.1,1.4,0.8,2.7,1.7,3.6l-2.1,2.1c-1-0.6-2.3-0.5-3.2,0.3
		c-1,1-1,2.6,0,3.5c0.5,0.5,1.1,0.7,1.8,0.7c0.6,0,1.3-0.2,1.8-0.7c0.5-0.5,0.7-1.1,0.7-1.8c0-0.5-0.1-1-0.4-1.4l2.2-2.2
		c0.9,0.7,2.1,1.2,3.3,1.3v3c-1.1,0.2-2,1.2-2,2.5c0,1.4,1.1,2.5,2.5,2.5s2.5-1.1,2.5-2.5c0-1.2-0.9-2.2-2-2.5v-3
		c1.4-0.1,2.6-0.6,3.6-1.5l2.1,2.1c-0.6,1-0.5,2.3,0.3,3.2c0.5,0.5,1.1,0.7,1.8,0.7c0.6,0,1.3-0.2,1.8-0.7c1-1,1-2.6,0-3.5
		c-0.9-0.9-2.2-1-3.2-0.3l-2.1-2.1c0.8-0.9,1.3-2.1,1.5-3.4h3c0.2,1.1,1.2,2,2.5,2c1.4,0,2.5-1.1,2.5-2.5S27.2,11.9,25.9,11.9z
		 M21.6,5.1c0.3-0.3,0.7-0.4,1.1-0.4c0.4,0,0.8,0.1,1.1,0.4c0.6,0.6,0.6,1.5,0,2.1c-0.6,0.6-1.5,0.6-2.1,0C21,6.7,21,5.7,21.6,5.1z
		 M12.6,2.6c0-0.8,0.7-1.5,1.5-1.5s1.5,0.7,1.5,1.5c0,0.8-0.7,1.5-1.5,1.5S12.6,3.4,12.6,2.6z M5.8,7.5c-0.4,0-0.8-0.2-1.1-0.4
		C4.5,6.8,4.3,6.4,4.3,6c0-0.4,0.2-0.8,0.4-1.1c0.3-0.3,0.7-0.4,1.1-0.4c0.4,0,0.8,0.2,1.1,0.4C7.2,5.2,7.4,5.6,7.4,6
		c0,0.4-0.2,0.8-0.4,1.1S6.3,7.5,5.8,7.5C5.8,7.5,5.8,7.5,5.8,7.5z M2.4,15.9c-0.8,0-1.5-0.7-1.5-1.5s0.7-1.5,1.5-1.5
		c0.8,0,1.5,0.7,1.5,1.5S3.2,15.9,2.4,15.9z M14.1,9c2.9,0,5.3,2.4,5.3,5.3s-2.4,5.3-5.3,5.3s-5.3-2.4-5.3-5.3S11.2,9,14.1,9z
		 M7.1,23.8c-0.6,0.6-1.5,0.6-2.1,0c-0.6-0.6-0.6-1.5,0-2.1c0.3-0.3,0.7-0.4,1.1-0.4c0.4,0,0.8,0.1,1.1,0.4c0.3,0.3,0.4,0.7,0.4,1.1
		C7.6,23.2,7.4,23.6,7.1,23.8z M15.6,26c0,0.8-0.7,1.5-1.5,1.5s-1.5-0.7-1.5-1.5s0.7-1.5,1.5-1.5S15.6,25.2,15.6,26z M22.4,21.1
		c0.4,0,0.8,0.1,1.1,0.4c0.6,0.6,0.6,1.5,0,2.1c-0.6,0.6-1.5,0.6-2.1,0c-0.6-0.6-0.6-1.5,0-2.1C21.7,21.2,22,21.1,22.4,21.1z
		 M25.9,15.9c-0.8,0-1.5-0.7-1.5-1.5s0.7-1.5,1.5-1.5s1.5,0.7,1.5,1.5S26.7,15.9,25.9,15.9z"/>
</g>
</svg>
