<?xml version="1.0" encoding="utf-8"?>
<!-- Generator: Adobe Illustrator 22.0.1, SVG Export Plug-In . SVG Version: 6.00 Build 0)  -->
<svg version="1.1" id="Layer_1" xmlns="http://www.w3.org/2000/svg" xmlns:xlink="http://www.w3.org/1999/xlink" x="0px" y="0px"
	 viewBox="0 0 28.4 28.5" style="enable-background:new 0 0 28.4 28.5;" xml:space="preserve">
<style type="text/css">
	.st0{fill:#3CAAE1;}
</style>
<g>
	<path class="st0" d="M26.7,25.6L21,19.9c1.7-1.8,2.7-4.2,2.7-6.9c0-5.6-4.6-10.2-10.2-10.2C7.8,2.8,3.2,7.4,3.2,13
		s4.6,10.2,10.2,10.2c2.6,0,5-1,6.9-2.7l5.7,5.7c0.1,0.1,0.2,0.1,0.4,0.1s0.3,0,0.4-0.1C26.9,26.1,26.9,25.8,26.7,25.6z M4.2,13
		c0-5.1,4.1-9.2,9.2-9.2c5.1,0,9.2,4.1,9.2,9.2c0,2.5-1,4.7-2.5,6.4c-0.1,0-0.2,0.1-0.2,0.1s-0.1,0.1-0.1,0.2
		c-1.7,1.6-3.9,2.5-6.4,2.5C8.3,22.3,4.2,18.1,4.2,13z"/>
	<path class="st0" d="M13.4,12.5c-1,0-1.7-0.8-1.7-1.7s0.8-1.7,1.7-1.7s1.7,0.8,1.7,1.7c0,0.3,0.2,0.5,0.5,0.5s0.5-0.2,0.5-0.5
		c0-1.3-1-2.4-2.2-2.7V7.2c0-0.3-0.2-0.5-0.5-0.5s-0.5,0.2-0.5,0.5v0.9c-1.3,0.2-2.2,1.3-2.2,2.7c0,1.5,1.2,2.7,2.7,2.7
		c1,0,1.7,0.8,1.7,1.7S14.4,17,13.4,17s-1.7-0.8-1.7-1.7c0-0.3-0.2-0.5-0.5-0.5s-0.5,0.2-0.5,0.5c0,1.3,1,2.4,2.2,2.7v0.9
		c0,0.3,0.2,0.5,0.5,0.5s0.5-0.2,0.5-0.5v-0.9c1.3-0.2,2.2-1.3,2.2-2.7C16.1,13.8,14.9,12.5,13.4,12.5z"/>
</g>
</svg>
