<?xml version="1.0" encoding="utf-8"?>
<!-- Generator: Adobe Illustrator 22.0.1, SVG Export Plug-In . SVG Version: 6.00 Build 0)  -->
<svg version="1.1" id="Layer_1" xmlns="http://www.w3.org/2000/svg" xmlns:xlink="http://www.w3.org/1999/xlink" x="0px" y="0px"
	 viewBox="0 0 28.4 28.5" style="enable-background:new 0 0 28.4 28.5;" xml:space="preserve">
<style type="text/css">
	.st0{fill:#3CAAE1;}
</style>
<g>
	<path class="st0" d="M13.7,21.9C13.7,21.9,13.7,21.9,13.7,21.9C13.8,21.9,13.8,21.9,13.7,21.9c0.2,0,0.2,0,0.3,0c0.1,0,0.2,0,0.3,0
		c0,0,0,0,0,0c0,0,0,0,0.1,0c4.1-0.2,7.3-3.6,7.3-7.7c0-4.1-3.2-7.4-7.3-7.6c0,0-0.1,0-0.1,0c-0.1,0-0.2,0-0.3,0c-0.1,0-0.2,0-0.3,0
		c0,0,0,0,0,0c0,0,0,0,0,0c-4.1,0.2-7.2,3.3-7.3,7.3c0,0,0,0,0,0.1c0,0,0,0,0,0c0,0,0,0.1,0,0.1C6.4,18.3,9.6,21.7,13.7,21.9z
		 M8.3,10.7H11c-0.3,0.9-0.5,1.8-0.5,2.7H7.4C7.5,12.4,7.8,11.5,8.3,10.7z M14,7.6C14,7.6,14,7.6,14,7.6c0.1,0,0.1,0,0.2,0
		c0.6,0.7,1.1,1.4,1.5,2.1h-3.1C12.9,8.9,13.4,8.2,14,7.6z M16.1,10.7c0.3,0.9,0.5,1.8,0.6,2.7h-5.2c0-0.9,0.2-1.9,0.6-2.7H16.1z
		 M20.7,13.4h-3c0-0.9-0.2-1.9-0.5-2.7h2.6C20.2,11.5,20.6,12.4,20.7,13.4z M20,17.2h-2.9c0.3-0.9,0.4-1.8,0.5-2.7h3.1
		C20.7,15.4,20.4,16.3,20,17.2z M14,20.9C14,20.9,14,20.9,14,20.9c-0.7-0.9-1.2-1.8-1.6-2.8h3.3C15.3,19.1,14.8,20,14,20.9
		C14.1,20.9,14.1,20.9,14,20.9z M12,17.2c-0.3-0.9-0.5-1.8-0.6-2.7h5.2c-0.1,0.9-0.2,1.8-0.6,2.7H12z M10.5,14.4
		c0,0.9,0.2,1.8,0.5,2.7H8.1c-0.4-0.8-0.7-1.8-0.7-2.7H10.5z M8.7,18.2h2.6c0.4,0.9,0.8,1.8,1.4,2.6C11.1,20.4,9.7,19.5,8.7,18.2z
		 M15.4,20.8c0.6-0.9,1-1.7,1.4-2.6h2.6C18.5,19.5,17.1,20.4,15.4,20.8z M18.9,9.7h-2.2C16.4,9,16,8.4,15.6,7.7
		C16.9,8.1,18,8.7,18.9,9.7z M12.6,7.7c-0.5,0.6-0.9,1.3-1.2,1.9H9.1C10,8.7,11.2,8,12.6,7.7z"/>
	<path class="st0" d="M24.5,18.8c-0.2-0.1-0.5,0-0.7,0.2c-1.8,3.8-5.6,6.1-9.8,6.1c-6,0-10.9-4.9-10.9-10.9c0-1.8,0.4-3.5,1.2-5
		c0.1-0.2,0-0.5-0.2-0.7C4,8.4,3.7,8.5,3.5,8.8c-0.9,1.7-1.3,3.6-1.3,5.5c0,6.5,5.3,11.9,11.9,11.9c4.6,0,8.7-2.6,10.7-6.7
		C24.8,19.2,24.7,18.9,24.5,18.8z"/>
	<path class="st0" d="M24.6,8.7c-0.1-0.2-0.4-0.3-0.7-0.2c-0.2,0.1-0.3,0.4-0.2,0.7c0.8,1.5,1.2,3.3,1.2,5c0,0.6-0.1,1.3-0.2,1.9
		c0,0.3,0.1,0.5,0.4,0.6c0,0,0.1,0,0.1,0c0.2,0,0.4-0.2,0.5-0.4c0.1-0.7,0.2-1.4,0.2-2.1C25.9,12.3,25.5,10.4,24.6,8.7z"/>
	<path class="st0" d="M5.7,7.1C5.8,7.1,5.9,7,6,6.9c2.1-2.2,5-3.5,8-3.5c2.9,0,5.6,1.1,7.7,3.2c0.2,0.2,0.5,0.2,0.7,0s0.2-0.5,0-0.7
		c-2.2-2.2-5.2-3.5-8.4-3.5c-3.3,0-6.5,1.4-8.8,3.9c-0.2,0.2-0.2,0.5,0,0.7C5.4,7,5.6,7.1,5.7,7.1z"/>
</g>
</svg>
